# xmcd
#
# Track frame offsets:
#	150
#	27602
#	44987
#	66755
#	89940
#	107512
#	125615
#	149952
#	166845
#	187622
#	216262
#	236217
#	258407
#	278075
#
# Disc length: 4407 seconds
# Revision: 11
# Processed by: cddbd v1.5.2PL0 Copyright (c) Steve Scherf et al.
# Submitted via: dBpowerAMP V12.0
#
DISCID=e111350e
DTITLE=Mary Chapin Carpenter - Time* Sex* Love*
DYEAR=2001
DGENRE=Country
TTITLE0=Whenever You're Ready
TTITLE1=Simple Life
TTITLE2=Swept Away
TTITLE3=Slave to the Beauty
TTITLE4=Maybe World
TTITLE5=What Was It Like
TTITLE6=King of Love
TTITLE7=This Is Me Leaving You
TTITLE8=Someone Else's Prayer
TTITLE9=The Dreaming Road
TTITLE10=Alone But Not Lonely
TTITLE11=The Long Way Home
TTITLE12=In the Name of Love
TTITLE13=Late for Your Life
EXTD=
EXTT0=
EXTT1=
EXTT2=
EXTT3=
EXTT4=
EXTT5=
EXTT6=
EXTT7=
EXTT8=
EXTT9=
EXTT10=
EXTT11=
EXTT12=
EXTT13=
PLAYORDER=
